<svg preserveAspectRatio="none" width="100%" height="100%" overflow="visible" style="display: block;" viewBox="0 0 362 211" fill="none" xmlns="http://www.w3.org/2000/svg">
<g id="line box" clip-path="url(#clip0_0_4)">
<line id="Line 1" x1="-233.707" y1="241.293" x2="194.293" y2="-186.707" stroke="var(--stroke-0, #EC4E09)" stroke-width="2"/>
<line id="Line 2" x1="-205.707" y1="241.293" x2="222.293" y2="-186.707" stroke="var(--stroke-0, #EC4E09)" stroke-width="2"/>
<line id="Line 3" x1="-177.707" y1="241.293" x2="250.293" y2="-186.707" stroke="var(--stroke-0, #EC4E09)" stroke-width="2"/>
<line id="Line 4" x1="-149.707" y1="241.293" x2="278.293" y2="-186.707" stroke="var(--stroke-0, #EC4E09)" stroke-width="2"/>
<line id="Line 5" x1="-121.707" y1="241.293" x2="306.293" y2="-186.707" stroke="var(--stroke-0, #EC4E09)" stroke-width="2"/>
<line id="Line 6" x1="-93.7071" y1="241.293" x2="334.293" y2="-186.707" stroke="var(--stroke-0, #EC4E09)" stroke-width="2"/>
<line id="Line 7" x1="-65.7071" y1="241.293" x2="362.293" y2="-186.707" stroke="var(--stroke-0, #EC4E09)" stroke-width="2"/>
<line id="Line 8" x1="-37.7071" y1="241.293" x2="390.293" y2="-186.707" stroke="var(--stroke-0, #EC4E09)" stroke-width="2"/>
<line id="Line 9" x1="-9.70711" y1="241.293" x2="418.293" y2="-186.707" stroke="var(--stroke-0, #EC4E09)" stroke-width="2"/>
<line id="Line 10" x1="18.2929" y1="241.293" x2="446.293" y2="-186.707" stroke="var(--stroke-0, #EC4E09)" stroke-width="2"/>
<line id="Line 11" x1="46.2929" y1="241.293" x2="474.293" y2="-186.707" stroke="var(--stroke-0, #EC4E09)" stroke-width="2"/>
<line id="Line 12" x1="74.2929" y1="241.293" x2="502.293" y2="-186.707" stroke="var(--stroke-0, #EC4E09)" stroke-width="2"/>
<line id="Line 13" x1="102.293" y1="241.293" x2="530.293" y2="-186.707" stroke="var(--stroke-0, #EC4E09)" stroke-width="2"/>
<line id="Line 14" x1="130.293" y1="241.293" x2="558.293" y2="-186.707" stroke="var(--stroke-0, #EC4E09)" stroke-width="2"/>
<line id="Line 15" x1="158.293" y1="241.293" x2="586.293" y2="-186.707" stroke="var(--stroke-0, #EC4E09)" stroke-width="2"/>
<line id="Line 16" x1="186.293" y1="241.293" x2="614.293" y2="-186.707" stroke="var(--stroke-0, #EC4E09)" stroke-width="2"/>
<line id="Line 17" x1="214.293" y1="241.293" x2="642.293" y2="-186.707" stroke="var(--stroke-0, #EC4E09)" stroke-width="2"/>
<line id="Line 18" x1="242.293" y1="241.293" x2="670.293" y2="-186.707" stroke="var(--stroke-0, #EC4E09)" stroke-width="2"/>
<line id="Line 19" x1="270.293" y1="241.293" x2="698.293" y2="-186.707" stroke="var(--stroke-0, #EC4E09)" stroke-width="2"/>
<line id="Line 20" x1="298.293" y1="241.293" x2="726.293" y2="-186.707" stroke="var(--stroke-0, #EC4E09)" stroke-width="2"/>
<line id="Line 21" x1="326.293" y1="241.293" x2="754.293" y2="-186.707" stroke="var(--stroke-0, #EC4E09)" stroke-width="2"/>
<line id="Line 22" x1="354.293" y1="241.293" x2="782.293" y2="-186.707" stroke="var(--stroke-0, #EC4E09)" stroke-width="2"/>
<line id="Line 23" x1="382.293" y1="241.293" x2="810.293" y2="-186.707" stroke="var(--stroke-0, #EC4E09)" stroke-width="2"/>
<line id="Line 24" x1="410.293" y1="241.293" x2="838.293" y2="-186.707" stroke="var(--stroke-0, #EC4E09)" stroke-width="2"/>
<line id="Line 25" x1="438.293" y1="241.293" x2="866.293" y2="-186.707" stroke="var(--stroke-0, #EC4E09)" stroke-width="2"/>
<line id="Line 26" x1="466.293" y1="241.293" x2="894.293" y2="-186.707" stroke="var(--stroke-0, #EC4E09)" stroke-width="2"/>
<line id="Line 27" x1="494.293" y1="241.293" x2="922.293" y2="-186.707" stroke="var(--stroke-0, #EC4E09)" stroke-width="2"/>
<line id="Line 28" x1="522.293" y1="241.293" x2="950.293" y2="-186.707" stroke="var(--stroke-0, #EC4E09)" stroke-width="2"/>
<line id="Line 29" x1="550.293" y1="241.293" x2="978.293" y2="-186.707" stroke="var(--stroke-0, #EC4E09)" stroke-width="2"/>
<line id="Line 30" x1="578.293" y1="241.293" x2="1006.29" y2="-186.707" stroke="var(--stroke-0, #EC4E09)" stroke-width="2"/>
<line id="Line 31" x1="606.293" y1="241.293" x2="1034.29" y2="-186.707" stroke="var(--stroke-0, #EC4E09)" stroke-width="2"/>
<line id="Line 32" x1="634.293" y1="241.293" x2="1062.29" y2="-186.707" stroke="var(--stroke-0, #EC4E09)" stroke-width="2"/>
<line id="Line 33" x1="662.293" y1="241.293" x2="1090.29" y2="-186.707" stroke="var(--stroke-0, #EC4E09)" stroke-width="2"/>
<line id="Line 34" x1="690.293" y1="241.293" x2="1118.29" y2="-186.707" stroke="var(--stroke-0, #EC4E09)" stroke-width="2"/>
<line id="Line 35" x1="718.293" y1="241.293" x2="1146.29" y2="-186.707" stroke="var(--stroke-0, #EC4E09)" stroke-width="2"/>
<line id="Line 36" x1="746.293" y1="241.293" x2="1174.29" y2="-186.707" stroke="var(--stroke-0, #EC4E09)" stroke-width="2"/>
<line id="Line 37" x1="774.293" y1="241.293" x2="1202.29" y2="-186.707" stroke="var(--stroke-0, #EC4E09)" stroke-width="2"/>
<line id="Line 38" x1="802.293" y1="241.293" x2="1230.29" y2="-186.707" stroke="var(--stroke-0, #EC4E09)" stroke-width="2"/>
<line id="Line 39" x1="830.293" y1="241.293" x2="1258.29" y2="-186.707" stroke="var(--stroke-0, #EC4E09)" stroke-width="2"/>
<line id="Line 40" x1="858.293" y1="241.293" x2="1286.29" y2="-186.707" stroke="var(--stroke-0, #EC4E09)" stroke-width="2"/>
<line id="Line 41" x1="886.293" y1="241.293" x2="1314.29" y2="-186.707" stroke="var(--stroke-0, #EC4E09)" stroke-width="2"/>
<line id="Line 42" x1="914.293" y1="241.293" x2="1342.29" y2="-186.707" stroke="var(--stroke-0, #EC4E09)" stroke-width="2"/>
<line id="Line 43" x1="942.293" y1="241.293" x2="1370.29" y2="-186.707" stroke="var(--stroke-0, #EC4E09)" stroke-width="2"/>
<line id="Line 44" x1="970.293" y1="241.293" x2="1398.29" y2="-186.707" stroke="var(--stroke-0, #EC4E09)" stroke-width="2"/>
<line id="Line 45" x1="998.293" y1="241.293" x2="1426.29" y2="-186.707" stroke="var(--stroke-0, #EC4E09)" stroke-width="2"/>
<line id="Line 46" x1="1026.29" y1="241.293" x2="1454.29" y2="-186.707" stroke="var(--stroke-0, #EC4E09)" stroke-width="2"/>
<line id="Line 47" x1="1054.29" y1="241.293" x2="1482.29" y2="-186.707" stroke="var(--stroke-0, #EC4E09)" stroke-width="2"/>
<line id="Line 48" x1="1082.29" y1="241.293" x2="1510.29" y2="-186.707" stroke="var(--stroke-0, #EC4E09)" stroke-width="2"/>
<line id="Line 49" x1="1110.29" y1="241.293" x2="1538.29" y2="-186.707" stroke="var(--stroke-0, #EC4E09)" stroke-width="2"/>
<line id="Line 50" x1="1138.29" y1="241.293" x2="1566.29" y2="-186.707" stroke="var(--stroke-0, #EC4E09)" stroke-width="2"/>
<line id="Line 51" x1="1166.29" y1="241.293" x2="1594.29" y2="-186.707" stroke="var(--stroke-0, #EC4E09)" stroke-width="2"/>
<line id="Line 52" x1="1194.29" y1="241.293" x2="1622.29" y2="-186.707" stroke="var(--stroke-0, #EC4E09)" stroke-width="2"/>
<line id="Line 53" x1="1222.29" y1="241.293" x2="1650.29" y2="-186.707" stroke="var(--stroke-0, #EC4E09)" stroke-width="2"/>
<line id="Line 54" x1="1250.29" y1="241.293" x2="1678.29" y2="-186.707" stroke="var(--stroke-0, #EC4E09)" stroke-width="2"/>
<line id="Line 55" x1="1278.29" y1="241.293" x2="1706.29" y2="-186.707" stroke="var(--stroke-0, #EC4E09)" stroke-width="2"/>
<line id="Line 56" x1="1306.29" y1="241.293" x2="1734.29" y2="-186.707" stroke="var(--stroke-0, #EC4E09)" stroke-width="2"/>
<line id="Line 57" x1="1334.29" y1="241.293" x2="1762.29" y2="-186.707" stroke="var(--stroke-0, #EC4E09)" stroke-width="2"/>
<line id="Line 58" x1="1362.29" y1="241.293" x2="1790.29" y2="-186.707" stroke="var(--stroke-0, #EC4E09)" stroke-width="2"/>
</g>
<defs>
<clipPath id="clip0_0_4">
<rect width="362" height="211" fill="white"/>
</clipPath>
</defs>
</svg>
