<svg preserveAspectRatio="none" width="100%" height="100%" overflow="visible" style="display: block;" viewBox="0 0 228 54" fill="none" xmlns="http://www.w3.org/2000/svg">
<g id="line box" opacity="0.5" clip-path="url(#clip0_0_4)">
<line id="Line 1" x1="-233.707" y1="241.293" x2="194.293" y2="-186.707" stroke="var(--stroke-0, #EC4E09)" stroke-width="2"/>
<line id="Line 2" x1="-221.707" y1="241.293" x2="206.293" y2="-186.707" stroke="var(--stroke-0, #EC4E09)" stroke-width="2"/>
<line id="Line 3" x1="-209.707" y1="241.293" x2="218.293" y2="-186.707" stroke="var(--stroke-0, #EC4E09)" stroke-width="2"/>
<line id="Line 4" x1="-197.707" y1="241.293" x2="230.293" y2="-186.707" stroke="var(--stroke-0, #EC4E09)" stroke-width="2"/>
<line id="Line 5" x1="-185.707" y1="241.293" x2="242.293" y2="-186.707" stroke="var(--stroke-0, #EC4E09)" stroke-width="2"/>
<line id="Line 6" x1="-173.707" y1="241.293" x2="254.293" y2="-186.707" stroke="var(--stroke-0, #EC4E09)" stroke-width="2"/>
<line id="Line 7" x1="-161.707" y1="241.293" x2="266.293" y2="-186.707" stroke="var(--stroke-0, #EC4E09)" stroke-width="2"/>
<line id="Line 8" x1="-149.707" y1="241.293" x2="278.293" y2="-186.707" stroke="var(--stroke-0, #EC4E09)" stroke-width="2"/>
<line id="Line 9" x1="-137.707" y1="241.293" x2="290.293" y2="-186.707" stroke="var(--stroke-0, #EC4E09)" stroke-width="2"/>
<line id="Line 10" x1="-125.707" y1="241.293" x2="302.293" y2="-186.707" stroke="var(--stroke-0, #EC4E09)" stroke-width="2"/>
<line id="Line 11" x1="-113.707" y1="241.293" x2="314.293" y2="-186.707" stroke="var(--stroke-0, #EC4E09)" stroke-width="2"/>
<line id="Line 12" x1="-101.707" y1="241.293" x2="326.293" y2="-186.707" stroke="var(--stroke-0, #EC4E09)" stroke-width="2"/>
<line id="Line 13" x1="-89.7071" y1="241.293" x2="338.293" y2="-186.707" stroke="var(--stroke-0, #EC4E09)" stroke-width="2"/>
<line id="Line 14" x1="-77.7071" y1="241.293" x2="350.293" y2="-186.707" stroke="var(--stroke-0, #EC4E09)" stroke-width="2"/>
<line id="Line 15" x1="-65.7071" y1="241.293" x2="362.293" y2="-186.707" stroke="var(--stroke-0, #EC4E09)" stroke-width="2"/>
<line id="Line 16" x1="-53.7071" y1="241.293" x2="374.293" y2="-186.707" stroke="var(--stroke-0, #EC4E09)" stroke-width="2"/>
<line id="Line 17" x1="-41.7071" y1="241.293" x2="386.293" y2="-186.707" stroke="var(--stroke-0, #EC4E09)" stroke-width="2"/>
<line id="Line 18" x1="-29.7071" y1="241.293" x2="398.293" y2="-186.707" stroke="var(--stroke-0, #EC4E09)" stroke-width="2"/>
<line id="Line 19" x1="-17.7071" y1="241.293" x2="410.293" y2="-186.707" stroke="var(--stroke-0, #EC4E09)" stroke-width="2"/>
<line id="Line 20" x1="-5.70711" y1="241.293" x2="422.293" y2="-186.707" stroke="var(--stroke-0, #EC4E09)" stroke-width="2"/>
<line id="Line 21" x1="6.29289" y1="241.293" x2="434.293" y2="-186.707" stroke="var(--stroke-0, #EC4E09)" stroke-width="2"/>
<line id="Line 22" x1="18.2929" y1="241.293" x2="446.293" y2="-186.707" stroke="var(--stroke-0, #EC4E09)" stroke-width="2"/>
<line id="Line 23" x1="30.2929" y1="241.293" x2="458.293" y2="-186.707" stroke="var(--stroke-0, #EC4E09)" stroke-width="2"/>
<line id="Line 24" x1="42.2929" y1="241.293" x2="470.293" y2="-186.707" stroke="var(--stroke-0, #EC4E09)" stroke-width="2"/>
<line id="Line 25" x1="54.2929" y1="241.293" x2="482.293" y2="-186.707" stroke="var(--stroke-0, #EC4E09)" stroke-width="2"/>
<line id="Line 26" x1="66.2929" y1="241.293" x2="494.293" y2="-186.707" stroke="var(--stroke-0, #EC4E09)" stroke-width="2"/>
<line id="Line 27" x1="78.2929" y1="241.293" x2="506.293" y2="-186.707" stroke="var(--stroke-0, #EC4E09)" stroke-width="2"/>
<line id="Line 28" x1="90.2929" y1="241.293" x2="518.293" y2="-186.707" stroke="var(--stroke-0, #EC4E09)" stroke-width="2"/>
<line id="Line 29" x1="102.293" y1="241.293" x2="530.293" y2="-186.707" stroke="var(--stroke-0, #EC4E09)" stroke-width="2"/>
<line id="Line 30" x1="114.293" y1="241.293" x2="542.293" y2="-186.707" stroke="var(--stroke-0, #EC4E09)" stroke-width="2"/>
<line id="Line 31" x1="126.293" y1="241.293" x2="554.293" y2="-186.707" stroke="var(--stroke-0, #EC4E09)" stroke-width="2"/>
<line id="Line 32" x1="138.293" y1="241.293" x2="566.293" y2="-186.707" stroke="var(--stroke-0, #EC4E09)" stroke-width="2"/>
<line id="Line 33" x1="150.293" y1="241.293" x2="578.293" y2="-186.707" stroke="var(--stroke-0, #EC4E09)" stroke-width="2"/>
<line id="Line 34" x1="162.293" y1="241.293" x2="590.293" y2="-186.707" stroke="var(--stroke-0, #EC4E09)" stroke-width="2"/>
<line id="Line 35" x1="174.293" y1="241.293" x2="602.293" y2="-186.707" stroke="var(--stroke-0, #EC4E09)" stroke-width="2"/>
<line id="Line 36" x1="186.293" y1="241.293" x2="614.293" y2="-186.707" stroke="var(--stroke-0, #EC4E09)" stroke-width="2"/>
<line id="Line 37" x1="198.293" y1="241.293" x2="626.293" y2="-186.707" stroke="var(--stroke-0, #EC4E09)" stroke-width="2"/>
<line id="Line 38" x1="210.293" y1="241.293" x2="638.293" y2="-186.707" stroke="var(--stroke-0, #EC4E09)" stroke-width="2"/>
<line id="Line 39" x1="222.293" y1="241.293" x2="650.293" y2="-186.707" stroke="var(--stroke-0, #EC4E09)" stroke-width="2"/>
<line id="Line 40" x1="234.293" y1="241.293" x2="662.293" y2="-186.707" stroke="var(--stroke-0, #EC4E09)" stroke-width="2"/>
<line id="Line 41" x1="246.293" y1="241.293" x2="674.293" y2="-186.707" stroke="var(--stroke-0, #EC4E09)" stroke-width="2"/>
<line id="Line 42" x1="258.293" y1="241.293" x2="686.293" y2="-186.707" stroke="var(--stroke-0, #EC4E09)" stroke-width="2"/>
<line id="Line 43" x1="270.293" y1="241.293" x2="698.293" y2="-186.707" stroke="var(--stroke-0, #EC4E09)" stroke-width="2"/>
<line id="Line 44" x1="282.293" y1="241.293" x2="710.293" y2="-186.707" stroke="var(--stroke-0, #EC4E09)" stroke-width="2"/>
<line id="Line 45" x1="294.293" y1="241.293" x2="722.293" y2="-186.707" stroke="var(--stroke-0, #EC4E09)" stroke-width="2"/>
<line id="Line 46" x1="306.293" y1="241.293" x2="734.293" y2="-186.707" stroke="var(--stroke-0, #EC4E09)" stroke-width="2"/>
<line id="Line 47" x1="318.293" y1="241.293" x2="746.293" y2="-186.707" stroke="var(--stroke-0, #EC4E09)" stroke-width="2"/>
<line id="Line 48" x1="330.293" y1="241.293" x2="758.293" y2="-186.707" stroke="var(--stroke-0, #EC4E09)" stroke-width="2"/>
<line id="Line 49" x1="342.293" y1="241.293" x2="770.293" y2="-186.707" stroke="var(--stroke-0, #EC4E09)" stroke-width="2"/>
<line id="Line 50" x1="354.293" y1="241.293" x2="782.293" y2="-186.707" stroke="var(--stroke-0, #EC4E09)" stroke-width="2"/>
<line id="Line 51" x1="366.293" y1="241.293" x2="794.293" y2="-186.707" stroke="var(--stroke-0, #EC4E09)" stroke-width="2"/>
<line id="Line 52" x1="378.293" y1="241.293" x2="806.293" y2="-186.707" stroke="var(--stroke-0, #EC4E09)" stroke-width="2"/>
<line id="Line 53" x1="390.293" y1="241.293" x2="818.293" y2="-186.707" stroke="var(--stroke-0, #EC4E09)" stroke-width="2"/>
<line id="Line 54" x1="402.293" y1="241.293" x2="830.293" y2="-186.707" stroke="var(--stroke-0, #EC4E09)" stroke-width="2"/>
<line id="Line 55" x1="414.293" y1="241.293" x2="842.293" y2="-186.707" stroke="var(--stroke-0, #EC4E09)" stroke-width="2"/>
<line id="Line 56" x1="426.293" y1="241.293" x2="854.293" y2="-186.707" stroke="var(--stroke-0, #EC4E09)" stroke-width="2"/>
<line id="Line 57" x1="438.293" y1="241.293" x2="866.293" y2="-186.707" stroke="var(--stroke-0, #EC4E09)" stroke-width="2"/>
<line id="Line 58" x1="450.293" y1="241.293" x2="878.293" y2="-186.707" stroke="var(--stroke-0, #EC4E09)" stroke-width="2"/>
</g>
<defs>
<clipPath id="clip0_0_4">
<rect width="228" height="54" fill="white"/>
</clipPath>
</defs>
</svg>
